# xmcd
#
# Track frame offsets:
#	150
#	8740
#	29960
#	52252
#	88509
#	106744
#	148221
#	160606
#
# Disc length: 2307 seconds
# Revision: 0
# Processed by: cddbd v1.5.2PL0 Copyright (c) Steve Scherf et al.
# Submitted via: dBpowerAMP V12.0
#
DISCID=67090108
DTITLE=Stevie Ray Vaughan and Double Trouble - Couldnt Stand the Weather/MOFI UDSACD
DYEAR=2011
DGENRE=Pop/Rock
TTITLE0=Scuttle Buttin'
TTITLE1=Couldn't Stand the Weather
TTITLE2=The Things (That) I Used To Do
TTITLE3=Voodoo Chile (Slight Return)
TTITLE4=Cold Shot
TTITLE5=Tin Pan Alley (AKA Roughest Place In Town)
TTITLE6=Honey Bee
TTITLE7=Stang's Swang
EXTD=
EXTT0=
EXTT1=
EXTT2=
EXTT3=
EXTT4=
EXTT5=
EXTT6=
EXTT7=
PLAYORDER=
